<svg xmlns="http://www.w3.org/2000/svg" data-name="Layer 1" viewBox="0 0 64 64"><polyline fill="none" stroke="#000" stroke-linejoin="round" stroke-width="2" points="20.09 36 22 14 56 14 60 60 48 60"/><line x1="52" x2="54" y1="14" y2="60" fill="none" stroke="#000" stroke-linejoin="round" stroke-width="2"/><path fill="none" stroke="#000" stroke-linecap="square" stroke-linejoin="round" stroke-width="2" d="M30,20V8a4,4,0,0,1,4-4h6a4,4,0,0,1,4,4V20"/><path fill="none" stroke="#000" stroke-linecap="square" stroke-linejoin="round" stroke-width="2" d="M34,14V12a4,4,0,0,1,4-4h6a4,4,0,0,1,4,4v2"/><circle cx="30" cy="22" r="2" fill="none" stroke="#000" stroke-linecap="square" stroke-linejoin="round" stroke-width="2"/><circle cx="44" cy="22" r="2" fill="none" stroke="#000" stroke-linecap="square" stroke-linejoin="round" stroke-width="2"/><polygon fill="none" stroke="#000" stroke-linecap="square" stroke-linejoin="round" stroke-width="2" points="4 60 8 36 44 36 48 60 4 60"/><path fill="none" stroke="#000" stroke-linecap="square" stroke-linejoin="round" stroke-width="2" d="M16,44v3a5,5,0,0,0,5,5h4a5,5,0,0,0,5-5V44"/><line x1="38" x2="40" y1="36" y2="60" fill="none" stroke="#000" stroke-linejoin="round" stroke-width="2"/><circle cx="30" cy="42" r="2" fill="none" stroke="#000" stroke-linecap="square" stroke-linejoin="round" stroke-width="2"/><circle cx="16" cy="42" r="2" fill="none" stroke="#000" stroke-linecap="square" stroke-linejoin="round" stroke-width="2"/></svg>