<svg xmlns="http://www.w3.org/2000/svg" enable-background="new 0 0 512 512" viewBox="0 0 512 512"><path fill="#0d0d0d" d="M507,292H5c-2.8,0-5-2.2-5-5V46.4C0,20.8,20.8,0,46.4,0h419.3C491.2,0,512,20.8,512,46.4
				V287C512,289.8,509.8,292,507,292z M10,282h492V46.4c0-20.1-16.3-36.4-36.4-36.4H46.4C26.3,10,10,26.3,10,46.4V282z"/><path fill="#0d0d0d" d="M465.6 389H46.4C20.8 389 0 368.2 0 342.6V287c0-2.8 2.2-5 5-5h502c2.8 0 5 2.2 5 5v55.6C512 368.2 491.2 389 465.6 389zM10 292v50.6c0 20.1 16.3 36.4 36.4 36.4h419.3c20.1 0 36.4-16.3 36.4-36.4V292H10zM384 512H128c-2.8 0-5-2.2-5-5 0-24.8 20.2-45 45-45h176c24.8 0 45 20.2 45 45C389 509.8 386.8 512 384 512zM133.4 502h245.3c-2.4-16.9-17-30-34.6-30H168C150.4 472 135.8 485.1 133.4 502z"/><path fill="#0d0d0d" d="M315.1 467.8L302.7 389h-93.4l-9.2 58.8-9.9-1.5 9.9-63c.4-2.4 2.5-4.2 4.9-4.2h102c2.5 0 4.6 1.8 4.9 4.2l13 83L315.1 467.8zM256 364.5c-16 0-29-13-29-29s13-29 29-29 29 13 29 29S272 364.5 256 364.5zM256 316.5c-10.5 0-19 8.5-19 19s8.5 19 19 19 19-8.5 19-19S266.5 316.5 256 316.5zM307 156h-20c-2.8 0-5-2.2-5-5V77c0-14.3-11.7-26-26-26s-26 11.7-26 26v74c0 2.8-2.2 5-5 5h-20c-2.8 0-5-2.2-5-5V77c0-30.9 25.1-56 56-56s56 25.1 56 56v74C312 153.8 309.8 156 307 156zM292 146h10V77c0-25.4-20.6-46-46-46s-46 20.6-46 46v69h10V77c0-19.9 16.1-36 36-36s36 16.1 36 36V146z"/><rect width="62" height="10" x="225" y="100" fill="#0d0d0d"/><path fill="#0d0d0d" d="M299.5,261h-87c-25.6,0-46.5-20.9-46.5-46.5V105c0-2.8,2.2-5,5-5h14v10h-9v104.5
				c0,20.1,16.4,36.5,36.5,36.5h87c20.1,0,36.5-16.4,36.5-36.5V110h-29v-10h34c2.8,0,5,2.2,5,5v109.5C346,240.1,325.1,261,299.5,261
				z"/></svg>