<?xml version="1.0" encoding="iso-8859-1"?>
<svg xmlns="http://www.w3.org/2000/svg" xmlns:xlink="http://www.w3.org/1999/xlink" version="1.1" x="0px" y="0px" viewBox="0 0 128 128" style="enable-background:new 0 0 128 128;" xml:space="preserve">
<g id="Layer_1">
</g>
<g id="refrigerator">
</g>
<g id="washer">
</g>
<g id="tv">
</g>
<g id="microwawe">
</g>
<g id="vacuum_cleaner">
</g>
<g id="Gift">
</g>
<g id="umbrella">
</g>
<g id="rocket">
</g>
<g id="basket">
</g>
<g id="shopping">
</g>
<g id="email">
</g>
<g id="message">
</g>
<g id="delivery">
</g>
<g id="store">
</g>
<g id="label">
</g>
<g id="phone">
</g>
<g id="imac">
	<g>
		<g>
			<path style="fill:#505070;" d="M112,85H16c-5.514,0-10-4.486-10-10V17c0-5.514,4.486-10,10-10h96c5.514,0,10,4.486,10,10v58     C122,80.514,117.514,85,112,85z M16,11c-3.309,0-6,2.691-6,6v58c0,3.309,2.691,6,6,6h96c3.309,0,6-2.691,6-6V17     c0-3.309-2.691-6-6-6H16z"/>
		</g>
		<g>
			<rect x="8" y="65" style="fill:#505070;" width="112" height="4"/>
		</g>
		<g>
			<path style="fill:#505070;" d="M77.831,112H50.169c-1.87,0-3.6-0.849-4.745-2.328c-1.145-1.479-1.532-3.366-1.063-5.178     l5.704-21.996l3.871,1.004l-5.703,21.996c-0.156,0.604-0.026,1.232,0.355,1.726c0.381,0.493,0.958,0.776,1.581,0.776h27.662     c0.623,0,1.2-0.283,1.581-0.776c0.382-0.493,0.512-1.122,0.354-1.726l-5.702-21.996l3.871-1.004l5.703,21.996     c0.47,1.812,0.082,3.698-1.063,5.178C81.431,111.151,79.701,112,77.831,112z"/>
		</g>
		<g>
			<circle style="fill:#FFFFFF;" cx="64" cy="75" r="2"/>
			<path style="fill:#505070;" d="M64,79c-2.206,0-4-1.794-4-4s1.794-4,4-4s4,1.794,4,4S66.206,79,64,79z"/>
		</g>
	</g>
</g>
<g id="laptop">
</g>
<g id="heart_like">
</g>
<g id="game">
</g>
<g id="wallet">
</g>
<g id="camera">
</g>
<g id="battery">
</g>
<g id="shoes">
</g>
<g id="t-shirt">
</g>
<g id="pencil">
</g>
<g id="people">
</g>
<g id="statistics">
</g>
<g id="blog">
</g>
<g id="rock">
</g>
<g id="like">
</g>
<g id="dislike">
</g>
<g id="speaker">
</g>
<g id="pc">
</g>
<g id="glasses">
</g>
<g id="headphones">
</g>
<g id="player">
</g>
<g id="book">
</g>
<g id="transfer">
</g>
<g id="mouse">
</g>
<g id="package">
</g>
<g id="exellent">
</g>
<g id="card">
</g>
<g id="induction">
</g>
<g id="revers_camera">
</g>
<g id="flesh_drive">
</g>
<g id="time">
</g>
<g id="sale">
</g>
<g id="tablet">
</g>
<g id="search">
</g>

	
	<metadata>
		<rdf:RDF xmlns:rdf="http://www.w3.org/1999/02/22-rdf-syntax-ns#" xmlns:rdfs="http://www.w3.org/2000/01/rdf-schema#" xmlns:dc="http://purl.org/dc/elements/1.1/">
			<rdf:Description about="https://iconscout.com/legal#licenses" dc:title="Imac, Computer, Display, Mac, Apple, Desktop" dc:description="Imac, Computer, Display, Mac, Apple, Desktop" dc:publisher="Iconscout" dc:date="2016-12-14" dc:format="image/svg+xml" dc:language="en">
				<dc:creator>
					<rdf:Bag>
						<rdf:li>Igor Verizub</rdf:li>
					</rdf:Bag>
				</dc:creator>
			</rdf:Description>
		</rdf:RDF>
    </metadata></svg>
